<?xml version="1.0" encoding="UTF-8" standalone="no"?>
<svg width="1920" height="1080" viewBox="0 0 1920 1080" version="1.1" xmlns="http://www.w3.org/2000/svg">
  <defs>
    <linearGradient id="bg" x1="0" y1="0" x2="1920" y2="1080" gradientUnits="userSpaceOnUse">
      <stop offset="0" stop-color="#F9F4FF" />
      <stop offset="1" stop-color="#EFE4FF" />
    </linearGradient>
    <linearGradient id="outerHexGrad" x1="44" y1="34" x2="412" y2="428" gradientUnits="userSpaceOnUse">
      <stop offset="0" stop-color="#D7B6FF" />
      <stop offset="0.5" stop-color="#9D57EC" />
      <stop offset="1" stop-color="#54158F" />
    </linearGradient>
  </defs>

  <rect x="0" y="0" width="1920" height="1080" fill="url(#bg)" />

  <g transform="translate(160 148) scale(1.73)">
    <polygon points="228,6 420.2,117 420.2,339 228,450 35.8,339 35.8,117" fill="url(#outerHexGrad)" />
    <circle cx="228" cy="228" r="190" fill="#FFFFFF" />

    <polygon points="228,228 418,228 323,63.5" fill="#7A2BC9" />
    <polygon points="228,228 323,63.5 133,63.5" fill="#C894FF" />
    <polygon points="228,228 133,63.5 38,228" fill="#E2C5FF" />
    <polygon points="228,228 38,228 133,392.5" fill="#B276F6" />
    <polygon points="228,228 133,392.5 323,392.5" fill="#9650E9" />
    <polygon points="228,228 323,392.5 418,228" fill="#54158F" />
  </g>

  <g fill="#4E1B85" font-family="Segoe UI, Arial, sans-serif">
    <text x="1030" y="490" font-size="140" font-weight="700">Praxis</text>
    <text x="1030" y="580" font-size="44" font-weight="500">Launch What Matters.</text>
  </g>
</svg>
